<svg width="136" height="32" viewBox="0 0 136 32" fill="none" xmlns="http://www.w3.org/2000/svg">
<path d="M68.1301 18.5344C67.9548 19.7207 67.7854 20.907 67.5984 22.0932C67.431 23.1609 67.2459 24.2266 67.0608 25.2922C66.9019 26.2149 66.7359 27.1376 66.5626 28.0602C66.4011 28.9301 66.2081 29.7942 66.0703 30.6661C65.9935 31.1386 65.7256 31.3106 65.3023 31.3146C63.7269 31.3284 62.1515 31.3403 60.5761 31.3403C60.2512 31.3403 60.0464 31.1702 60.0937 30.8084C60.1803 30.1283 60.2689 29.4462 60.3694 28.766C60.4816 28.0049 60.5998 27.2417 60.7278 26.4825C60.9523 25.1736 61.1813 23.8661 61.415 22.5599C61.669 21.1502 61.9467 19.7464 62.187 18.3347C62.985 13.6507 63.8679 8.964 64.5461 4.26157C64.6741 3.3857 64.743 2.49995 64.869 1.62408C65.0344 0.463509 65.0837 0.659245 66.0112 0.617725C67.5157 0.55248 69.0261 0.639473 70.5404 0.679016C71.0583 0.692856 71.2237 0.926157 71.1311 1.458C70.6861 4.1693 70.2404 6.87928 69.7941 9.58794C69.7464 9.83225 69.7578 10.0845 69.8275 10.3234C69.9483 10.2377 70.0604 10.1404 70.1623 10.0328C72.2278 7.32686 74.4859 4.60593 76.068 1.58652C76.5721 0.623656 77.2279 0.580159 78.1061 0.597953C79.5614 0.64145 81.0166 0.597953 82.4739 0.597953C82.6524 0.579734 82.8323 0.616271 82.9898 0.702743C83.0511 0.759343 83.0974 0.830356 83.1245 0.909392C83.1517 0.988427 83.1589 1.073 83.1454 1.1555C82.9526 1.51705 82.7369 1.86575 82.4995 2.19942C81.9225 3.07134 81.3475 3.9472 80.7567 4.80923C80.4042 5.3213 80.0104 5.79779 79.652 6.31382C78.4566 8.00031 77.2574 9.67493 76.0818 11.3871C75.3729 12.4139 74.6902 13.4578 74.0338 14.5189C73.9152 14.7464 73.8857 15.0101 73.9511 15.2583C74.4631 16.9745 75.0105 18.6807 75.5461 20.3989C75.8159 21.2589 76.064 22.1269 76.3634 22.9691C76.7572 24.0704 77.2003 25.144 77.5823 26.2551C77.7792 26.8384 77.8678 27.4611 78.0608 28.0483C78.3444 28.9203 78.6831 29.7744 78.9883 30.6384C79.201 31.2414 79.14 31.3403 78.5079 31.3442C76.6883 31.3561 74.8687 31.3442 73.0492 31.3581C72.5943 31.3581 72.3678 31.1603 72.2319 30.6957C71.8184 29.2583 71.3359 27.8407 70.8811 26.4172C70.1538 24.1356 69.4271 21.854 68.7011 19.5724C68.5869 19.2185 68.4373 18.8784 68.3073 18.5305L68.1301 18.5344Z" fill="#F2EC35"/>
<path d="M54.3888 12.5537C53.5656 12.4726 53.3037 12.1187 53.4593 11.3121C53.6149 10.5054 53.8256 9.74026 53.9634 8.93953C54.079 8.30909 54.1448 7.67047 54.1603 7.02963C54.1761 6.23878 53.8906 5.8651 53.1166 5.70298C51.6732 5.3985 50.9643 5.84335 50.663 6.99601C49.958 9.69676 49.2845 12.4074 48.6583 15.1299C48.3669 16.4071 48.233 17.7199 48.0459 19.0189C47.8588 20.3179 47.6659 21.6149 47.53 22.9178C47.4926 23.5076 47.5045 24.0995 47.5654 24.6873C47.6107 25.405 48.1306 25.6304 48.7076 25.6917C49.1296 25.7618 49.5621 25.7307 49.9698 25.6008C50.346 25.4465 50.7812 25.1243 50.919 24.7704C51.3128 23.7482 51.5866 22.6766 51.8879 21.6188C52.0592 21.0257 52.1773 20.4049 52.3447 19.8038C52.3734 19.6473 52.4586 19.5069 52.5839 19.4095C52.7093 19.3121 52.866 19.2645 53.0241 19.2759C54.5325 19.3392 56.0409 19.3926 57.5533 19.4736C58.0476 19.5033 58.3174 20.0193 58.2169 20.6599C58.0712 21.601 57.9432 22.5481 57.7581 23.4813C57.4588 24.9819 57.1575 26.4885 56.4702 27.8705C55.8657 29.0864 55.1705 30.2648 53.8925 30.8777C53.2478 31.1593 52.5733 31.3663 51.8819 31.4946C49.956 31.9216 48.0046 32.0027 46.0885 31.4946C44.5348 31.0893 43.2489 30.2549 42.3627 28.8156C41.6184 27.6056 41.5199 26.2947 41.5455 24.972C41.581 23.2954 41.709 21.6109 41.8882 19.9501C42.0201 18.7204 42.3056 17.5064 42.5085 16.2845C42.6758 15.2802 42.796 14.2699 42.9811 13.2714C43.2154 12.014 43.4163 10.7446 43.7688 9.51487C44.3595 7.46459 44.9503 5.40443 45.7557 3.43126C46.19 2.38766 46.9764 1.53091 47.977 1.01126C50.8759 -0.503511 53.9915 0.10063 57.0295 0.716669C58.211 0.955901 58.981 1.70523 59.3926 2.79463C60.0069 4.41389 60.0641 6.10038 59.8159 7.79675C59.6072 9.23016 59.3473 10.6557 59.1306 12.0871C59.1304 12.1652 59.1134 12.2423 59.0807 12.3132C59.0481 12.3841 59.0007 12.4472 58.9416 12.498C58.8826 12.5488 58.8133 12.5863 58.7386 12.6079C58.6638 12.6294 58.5853 12.6346 58.5084 12.6229C57.1189 12.6229 55.7785 12.6879 54.3888 12.5537Z" fill="#F2EC35"/>
<path d="M124.159 6.64206C123.088 6.64206 122.075 6.64206 121.061 6.64206C120.652 6.64206 120.242 6.64206 119.834 6.62229C119.311 6.58868 119.131 6.35933 119.232 5.84132C119.464 4.63923 119.718 3.44307 119.951 2.24296C119.973 2.03018 119.985 1.81637 119.986 1.60237C120.047 0.926192 120.447 0.518904 121.091 0.520881C124.333 0.52879 127.578 0.541973 130.825 0.560426C132.3 0.560426 133.778 0.560425 135.249 0.599968C135.97 0.615785 136.078 0.762091 135.958 1.49165C135.7 3.06149 135.421 4.62935 135.153 6.19918C135.092 6.55902 134.875 6.66578 134.527 6.65985C133.379 6.6381 132.231 6.64601 131.085 6.62822C130.691 6.62822 130.543 6.71521 130.482 7.16995C130.356 8.10908 130.088 9.02845 129.891 9.95967C129.747 10.6418 129.629 11.3298 129.497 12.0139C129.287 13.04 129.058 14.0642 128.853 15.0923C128.779 15.4758 128.771 15.8831 128.694 16.2588C128.497 17.2375 128.255 18.2082 128.074 19.1889C127.368 22.9813 126.646 26.7686 125.9 30.5534C125.766 31.2296 125.604 31.3442 124.895 31.3442C123.846 31.3442 122.796 31.3442 121.744 31.3442C121.278 31.3442 120.807 31.3759 120.344 31.3324C119.978 31.2968 119.763 31.0734 119.84 30.6523C120.037 29.5727 120.234 28.4932 120.405 27.4098C120.913 24.2577 121.493 21.1437 122.132 18.0145C122.329 17.0753 122.465 16.1243 122.646 15.1813C122.731 14.7364 122.879 14.3034 122.959 13.8586C123.259 12.2017 123.54 10.5409 123.834 8.88214C123.917 8.41356 124.031 7.94894 124.108 7.47838C124.149 7.2352 124.141 6.97224 124.159 6.64206Z" fill="#F2EC35"/>
<path d="M90.1366 0.682947C90.94 0.682947 91.7435 0.700741 92.5469 0.682947C92.8994 0.682947 93.0313 0.849026 93.0353 1.14362C93.0409 1.45509 93.0159 1.76636 92.9605 2.07286C91.5764 9.54292 90.305 17.0225 89.024 24.5112C88.9295 25.0925 89.024 25.3792 89.6541 25.3594C91.1448 25.312 92.6355 25.3476 94.1282 25.3357C94.5516 25.3357 94.7308 25.4879 94.6559 25.9288C94.3934 27.4486 94.1413 28.9697 93.8998 30.492C93.7117 31.6609 91.1646 31.3374 90.3197 31.356C88.9275 31.3837 87.5352 31.356 86.143 31.356C84.8473 31.356 83.5528 31.3646 82.2597 31.3818C81.693 31.3818 85.8726 6.03801 86.4561 3.01793C86.5762 2.39118 86.6845 1.76048 86.7968 1.12978C86.7984 1.06387 86.8135 0.998994 86.841 0.939126C86.8685 0.879257 86.9079 0.825654 86.9567 0.781601C87.0056 0.737548 87.0629 0.703972 87.1251 0.682929C87.1873 0.661885 87.2532 0.653819 87.3186 0.659222C88.252 0.659222 89.1874 0.659222 90.1208 0.659222L90.1366 0.682947Z" fill="#F2EC35"/>
<path d="M18.5866 12.704C17.8383 13.738 16.9442 14.5704 15.741 15.0449C15.5817 15.1353 15.4352 15.247 15.3059 15.377C15.4352 15.4889 15.5758 15.5869 15.7253 15.6696C16.9344 16.1679 17.8461 16.9627 18.2853 18.2399C19.2898 21.0697 18.8204 24.8496 17.3341 27.4553C15.9951 29.8001 14.0062 31.1189 11.3162 31.2612C9.40607 31.3621 7.49199 31.3819 5.57987 31.3819C3.94345 31.3819 2.30506 31.3107 0.656824 31.2533C0.0247047 31.2316 -0.0698177 31.0774 0.0384894 30.4526C0.385072 28.4755 0.728372 26.5036 1.06839 24.537C1.2535 23.4575 1.41497 22.3721 1.61977 21.2965C1.94272 19.6021 2.29915 17.9157 2.62801 16.2232C2.86432 15.0172 3.07109 13.8072 3.30739 12.6011C3.48069 11.7174 3.70124 10.8415 3.86468 9.95377C4.07933 8.75761 4.25853 7.55354 4.43773 6.35343C4.53225 5.76029 4.62086 5.15332 4.72129 4.55425C4.88474 3.58348 5.07182 2.61666 5.2136 1.64194C5.33175 0.837253 5.61926 0.516956 6.41679 0.52091C9.25247 0.538704 12.0901 0.536727 14.9258 0.619766C16.7217 0.671172 18.2932 1.3434 19.39 2.83415C19.7331 3.33507 19.9808 3.89549 20.1206 4.48702C20.818 6.99554 20.1342 10.6806 18.5866 12.704ZM7.00559 25.6956C7.61408 25.6956 8.18712 25.6956 8.77789 25.6956C9.10478 25.6956 9.43364 25.7352 9.7625 25.7174C10.6644 25.664 11.4757 25.3437 11.8223 24.4659C12.3205 23.2005 12.6868 21.8758 12.5273 20.4899C12.4367 19.6891 12.1492 18.8765 11.2571 18.6927C10.3986 18.5167 9.52225 18.4317 8.65383 18.2972C8.37026 18.2557 8.2777 18.4277 8.23044 18.6591C8.13198 19.1553 8.01974 19.6476 7.93506 20.1518C7.61408 21.9846 7.31279 23.8134 6.99771 25.6956H7.00559ZM9.31351 12.2512C9.92988 12.2512 10.4379 12.2868 10.9381 12.2373C11.275 12.1932 11.6023 12.0937 11.907 11.9428C13.5848 11.1796 14.4118 8.50652 14.0022 6.88527C13.8979 6.47206 13.5375 5.90858 13.187 5.81565C12.3993 5.60212 11.5427 5.62782 10.7117 5.59421C10.6093 5.59421 10.4261 5.79193 10.4025 5.92242C10.0973 7.55157 9.81173 9.18467 9.52816 10.8178C9.44348 11.2705 9.38637 11.7213 9.30564 12.2571L9.31351 12.2512Z" fill="#F2EC35"/>
<path d="M117.006 6.85362C116.88 8.63303 116.809 10.5429 116.592 12.435C116.407 14.1235 116.118 15.7961 115.805 17.4727C115.305 20.0569 114.71 22.7282 113.914 25.2389C113.503 26.5388 112.876 27.76 112.061 28.8511C111.206 29.9899 110.222 30.9607 108.875 31.3561C107.552 31.7515 106.213 32.0797 104.775 31.9829C103.766 31.9079 102.764 31.7478 101.782 31.5044C100.521 31.1999 99.6629 30.3181 98.8457 29.375C97.5755 27.906 97.2703 26.097 97.1758 24.276C96.9513 19.4839 98.046 13.7701 99.4443 9.26373C99.9767 7.5537 100.624 5.94349 101.473 4.37826C102.393 2.62692 103.941 1.29195 105.805 0.643469C107.602 0.0169475 109.524 -0.155532 111.403 0.141278C112.762 0.33899 113.861 0.983535 114.948 1.82381C116.573 3.10697 116.87 4.86265 117.006 6.85362ZM105.472 26.0891C106.801 26.1049 107.861 25.1282 108.099 23.758C108.408 21.9786 108.773 20.2249 109.113 18.4593C109.342 17.2731 109.602 16.0868 109.791 14.8886C109.97 13.7597 110.07 12.6189 110.214 11.484C110.372 10.2464 110.551 9.01264 110.702 7.77298C110.787 7.0711 110.383 6.26443 109.905 5.96984C109.076 5.45974 107.181 5.90855 106.691 7.13239C106.185 8.34252 105.802 9.60116 105.549 10.8889C105.061 13.562 104.45 16.2133 104.017 18.8943C103.735 20.6342 103.495 22.3938 103.59 24.1792C103.655 25.4089 104.251 26.0732 105.472 26.0891Z" fill="#F2EC35"/>
<path d="M37.7651 9.58606C37.8163 11.1282 37.8635 12.6704 37.9187 14.2125C38.0132 16.8757 38.1274 19.5389 38.2062 22.2021C38.2928 25.0788 38.346 27.9575 38.4208 30.8342C38.4307 31.2019 38.3184 31.3661 37.9167 31.3641C36.3295 31.3641 34.7443 31.3937 33.1571 31.4036C32.5368 31.4036 32.4541 31.3364 32.4383 30.6899C32.4088 29.5728 32.3891 28.4538 32.4127 27.3288C32.4127 26.8503 32.2572 26.708 31.7964 26.7C30.5203 26.6783 29.2364 26.621 27.9662 26.5636C27.8468 26.5436 27.7241 26.5686 27.6219 26.634C27.5198 26.6993 27.4453 26.8003 27.4129 26.9175C26.9088 28.1473 26.3672 29.3612 25.8749 30.595C25.5973 31.2889 25.4299 31.4412 24.6934 31.4234C23.0734 31.3865 21.4521 31.3483 19.8294 31.3087C19.0634 31.2909 18.9708 31.1664 19.1579 30.423C19.1776 30.3433 19.2032 30.2654 19.2347 30.1897C20.0224 28.3351 20.8396 26.4865 21.6155 24.6241C22.2063 23.2025 22.7557 21.7632 23.3346 20.3357C23.7895 19.2107 24.2759 18.0996 24.7131 16.9746C25.0676 16.075 25.3728 15.1556 25.7154 14.2521C26.0975 13.2411 26.4913 12.2354 26.897 11.235C27.2554 10.3413 27.6216 9.45557 28.0115 8.56784C28.6693 7.08499 29.3506 5.61203 30.0162 4.13315C30.4809 3.10109 30.9496 2.06903 31.3947 1.02511C31.4285 0.908462 31.5021 0.807419 31.6024 0.739519C31.7028 0.67162 31.8237 0.641154 31.9441 0.653409C33.5194 0.653409 35.0948 0.653409 36.6544 0.653409C37.194 0.653409 37.3909 0.85112 37.4185 1.39285C37.5051 3.03584 37.576 4.67883 37.6509 6.3238L37.7651 9.58606ZM32.6451 11.5355L32.4758 11.4663C32.3628 11.6375 32.2646 11.818 32.1823 12.0061C31.8279 13.048 31.4872 14.0919 31.1446 15.1378C30.5912 16.8362 30.0477 18.5365 29.4825 20.2309C29.3605 20.5967 29.5278 20.739 29.8272 20.7608C30.5459 20.8102 31.2667 20.83 31.9933 20.8576C32.0631 20.8692 32.1345 20.8643 32.2021 20.8433C32.2696 20.8224 32.3314 20.7858 32.3824 20.7367C32.4334 20.6876 32.4723 20.6272 32.4961 20.5603C32.5198 20.4935 32.5277 20.422 32.5191 20.3515C32.5191 20.0569 32.5191 19.7584 32.5191 19.4657C32.5821 17.1327 32.649 14.7997 32.7042 12.4647C32.7073 11.9806 32.6297 11.5355 32.6451 11.5355Z" fill="#F2EC35"/>
</svg>
